<?xml version="1.0" standalone="no"?>
<!DOCTYPE svg PUBLIC "-//W3C//DTD SVG 20010904//EN"
 "http://www.w3.org/TR/2001/REC-SVG-20010904/DTD/svg10.dtd">
<svg version="1.0" xmlns="http://www.w3.org/2000/svg"
 width="238.000000pt" height="198.000000pt" viewBox="0 0 238.000000 198.000000"
 preserveAspectRatio="xMidYMid meet">

<g transform="translate(0.000000,198.000000) scale(0.100000,-0.100000)"
fill="#000000" stroke="none">
<path d="M885 1275 l-89 -75 -153 0 c-141 0 -153 -1 -153 -18 0 -16 14 -20 89
-30 94 -13 121 -20 120 -31 0 -3 -32 -32 -72 -64 -40 -31 -88 -71 -107 -87
l-35 -29 82 -1 82 0 86 71 c66 55 91 70 108 65 37 -9 105 -74 112 -106 6 -28
7 -29 58 -23 29 3 53 7 54 8 2 1 12 52 24 113 l21 112 539 0 c353 0 539 3 539
10 0 7 -185 10 -536 10 l-536 0 6 33 c4 17 9 51 13 75 l6 42 -84 0 -84 0 -90
-75z m125 -55 c0 -14 -7 -20 -22 -20 -20 0 -21 1 -3 20 10 11 20 20 22 20 1 0
3 -9 3 -20z m-250 -50 c0 -5 -13 -10 -29 -10 -17 0 -33 5 -36 10 -4 6 8 10 29
10 20 0 36 -4 36 -10z m234 -37 c-3 -27 -10 -52 -14 -56 -4 -5 -31 3 -60 18
l-52 27 33 28 c22 19 46 29 67 30 l33 0 -7 -47z"/>
<path d="M361 1170 c-37 -9 -82 -39 -89 -59 -3 -8 5 -4 16 7 23 23 81 42 129
42 17 0 35 5 38 10 7 12 -44 12 -94 0z"/>
<path d="M1227 1149 c-17 -10 -57 -79 -57 -99 0 -6 36 -10 96 -10 72 0 95 -3
92 -12 -3 -9 -41 -15 -123 -18 -111 -5 -118 -6 -126 -27 l-8 -23 137 0 c109 0
142 3 160 16 22 15 62 83 62 104 0 6 -36 10 -95 10 -128 0 -123 19 6 22 93 3
103 5 117 26 l14 22 -128 0 c-71 0 -137 -5 -147 -11z"/>
<path d="M1546 1149 c-22 -13 -89 -157 -82 -176 4 -10 38 -13 149 -13 144 0
144 0 155 25 l12 25 -105 0 c-118 0 -123 5 -85 68 l20 32 108 0 c106 0 109 1
120 25 l12 25 -143 0 c-83 0 -150 -5 -161 -11z"/>
<path d="M1848 1075 c-22 -46 -38 -91 -34 -100 4 -12 29 -15 145 -15 134 0
141 1 156 23 l15 22 -105 3 c-117 3 -119 5 -86 70 10 20 22 47 25 60 7 20 4
22 -34 22 l-41 0 -41 -85z"/>
<path d="M210 1000 c-9 -6 -10 -10 -3 -10 6 0 15 5 18 10 8 12 4 12 -15 0z"/>
<path d="M233 985 c-3 -9 -3 -18 -1 -21 3 -3 8 4 11 16 6 23 -1 27 -10 5z"/>
<path d="M254 965 c-8 -19 5 -38 21 -31 8 3 15 1 17 -4 2 -4 10 -1 18 8 13 14
12 15 -3 9 -9 -3 -17 -2 -17 3 0 6 -5 10 -11 10 -5 0 -7 -4 -4 -10 3 -5 1 -10
-4 -10 -17 0 -13 18 7 29 16 10 16 10 -1 11 -10 0 -20 -7 -23 -15z"/>
<path d="M400 944 c0 -7 123 -66 210 -99 175 -68 367 -111 535 -121 218 -13
317 41 255 141 -23 37 -38 48 -20 16 30 -57 -7 -94 -113 -111 -185 -32 -559
36 -792 144 -41 19 -75 33 -75 30z"/>
<path d="M313 915 c-3 -9 -3 -19 1 -22 3 -4 6 1 6 10 0 10 7 17 15 17 18 0 19
-11 3 -31 -7 -7 -4 -7 6 3 10 9 15 21 12 27 -10 16 -36 13 -43 -4z"/>
<path d="M375 879 c6 -16 4 -20 -6 -14 -11 6 -12 5 -2 -5 15 -16 18 -13 27 18
6 16 3 22 -9 22 -12 0 -15 -5 -10 -21z"/>
<path d="M403 857 c-9 -19 -8 -23 8 -24 10 -1 21 2 24 8 3 5 -2 6 -11 2 -12
-4 -15 -2 -12 8 3 8 12 13 21 13 9 -1 14 2 11 7 -10 16 -31 9 -41 -14z"/>
<path d="M468 853 c6 -2 12 -8 12 -13 0 -4 -6 -7 -12 -6 -18 2 -22 -18 -5 -22
16 -3 31 24 21 39 -3 5 -11 9 -17 8 -9 0 -9 -2 1 -6z"/>
<path d="M493 815 c-3 -9 -3 -18 -1 -21 3 -3 8 4 11 16 6 23 -1 27 -10 5z"/>
<path d="M537 803 c-4 -3 -7 -13 -7 -22 1 -13 3 -13 11 2 11 19 8 33 -4 20z"/>
<path d="M605 789 c-4 -6 -4 -13 -1 -16 3 -4 6 -1 6 6 0 8 6 11 16 7 8 -3 12
-2 9 4 -8 13 -22 13 -30 -1z"/>
<path d="M626 757 c3 -10 9 -15 12 -12 3 3 0 11 -7 18 -10 9 -11 8 -5 -6z"/>
<path d="M652 755 c2 -11 -1 -26 -5 -32 -5 -7 -4 -13 2 -13 6 0 15 9 21 20 12
23 32 18 23 -5 -3 -9 1 -15 11 -15 9 0 16 7 16 15 0 8 0 18 0 23 0 11 -40 11
-47 -1 -4 -6 -10 -3 -15 9 -7 18 -8 18 -6 -1z"/>
<path d="M741 723 c0 -25 1 -26 9 -8 12 27 12 35 0 35 -5 0 -10 -12 -9 -27z"/>
<path d="M764 719 c-3 -6 -2 -15 3 -20 5 -5 9 -1 10 11 2 22 -2 25 -13 9z"/>
<path d="M791 714 c0 -11 3 -14 6 -6 3 7 2 16 -1 19 -3 4 -6 -2 -5 -13z"/>
<path d="M813 705 c-3 -9 -3 -18 -1 -21 3 -3 8 4 11 16 6 23 -1 27 -10 5z"/>
<path d="M840 703 c0 -14 2 -15 9 -4 5 8 14 10 21 6 9 -5 11 -4 6 3 -11 18
-36 14 -36 -5z"/>
<path d="M895 700 c-3 -5 -2 -17 3 -26 6 -11 11 -13 16 -5 4 6 2 11 -3 11 -6
0 -11 5 -11 11 0 5 5 7 12 3 7 -4 8 -3 4 4 -9 15 -13 15 -21 2z"/>
<path d="M960 691 c-7 -14 -7 -21 0 -21 5 0 10 -5 10 -11 0 -5 -6 -7 -12 -3
-7 4 -9 3 -5 -1 19 -21 37 -13 33 16 -4 39 -12 45 -26 20z"/>
<path d="M1420 691 c0 -11 4 -22 9 -25 4 -3 6 6 3 19 -5 30 -12 33 -12 6z"/>
<path d="M1446 697 c3 -10 9 -15 12 -12 3 3 0 11 -7 18 -10 9 -11 8 -5 -6z"/>
<path d="M1030 685 c-6 -8 -10 -19 -8 -24 1 -6 8 1 15 14 13 28 11 31 -7 10z"/>
<path d="M1398 675 c2 -14 8 -25 12 -25 10 0 1 38 -10 45 -4 2 -5 -7 -2 -20z"/>
<path d="M1292 660 c0 -19 2 -27 5 -17 2 9 2 25 0 35 -3 9 -5 1 -5 -18z"/>
<path d="M1088 668 c-8 -20 2 -38 20 -38 13 0 13 2 -3 13 -14 11 -15 16 -5 22
7 4 16 2 22 -6 8 -12 9 -11 5 1 -5 19 -33 25 -39 8z"/>
<path d="M1140 670 c0 -5 7 -7 15 -4 8 4 15 8 15 10 0 2 -7 4 -15 4 -8 0 -15
-4 -15 -10z"/>
<path d="M1188 655 c2 -14 6 -25 8 -25 2 0 4 11 4 25 0 14 -4 25 -9 25 -4 0
-6 -11 -3 -25z"/>
<path d="M1210 650 c0 -11 2 -20 4 -20 2 0 6 9 9 20 3 11 1 20 -4 20 -5 0 -9
-9 -9 -20z"/>
<path d="M1242 650 c0 -14 2 -19 5 -12 2 6 2 18 0 25 -3 6 -5 1 -5 -13z"/>
<path d="M1272 650 c0 -14 2 -19 5 -12 2 6 2 18 0 25 -3 6 -5 1 -5 -13z"/>
<path d="M1050 640 c-9 -6 -10 -10 -3 -10 6 0 15 5 18 10 8 12 4 12 -15 0z"/>
</g>
</svg>
